# Blender 4.3.0
# www.blender.org
mtllib oak_tree.mtl
o oak_tree
v 0.000000 -0.253791 -0.736813
v 0.000000 3.430273 -0.736813
v 0.638098 -0.253791 -0.368406
v 0.638098 3.430273 -0.368407
v 0.638098 -0.253791 0.368406
v 0.638098 3.430273 0.368406
v 0.000000 -0.253791 0.736813
v 0.000000 3.430273 0.736812
v -0.638098 -0.253791 0.368406
v -0.638098 3.430273 0.368406
v -0.638098 -0.253791 -0.368406
v -0.638098 3.430273 -0.368407
v 2.729056 4.903898 -1.575621
v 0.000000 4.903898 -3.151243
v 2.729056 4.903898 1.575621
v 0.000000 4.903898 3.151241
v -2.729056 4.903898 1.575621
v -2.729056 4.903898 -1.575621
v 2.729056 7.114337 -1.575622
v 0.000000 7.114337 -3.151243
v 2.729056 7.114337 1.575620
v 0.000000 7.114337 3.151241
v -2.729056 7.114337 1.575620
v -2.729056 7.114337 -1.575622
v 0.638098 8.587962 -0.368407
v 0.000000 8.587962 -0.736813
v 0.638098 8.587962 0.368406
v 0.000000 8.587962 0.736812
v -0.638098 8.587962 0.368406
v -0.638098 8.587962 -0.368407
vn 0.5761 -0.8174 -0.0000
vn 0.5000 -0.0000 -0.8660
vn -0.5761 -0.8174 -0.0000
vn 0.2880 -0.8174 -0.4989
vn 0.2880 -0.8174 0.4989
vn -0.2880 -0.8174 -0.4989
vn -0.2880 -0.8174 0.4989
vn -0.5761 0.8174 -0.0000
vn -0.5000 -0.0000 -0.8660
vn -0.5000 -0.0000 0.8660
vn 1.0000 -0.0000 -0.0000
vn -1.0000 -0.0000 -0.0000
vn 0.5000 -0.0000 0.8660
vn -0.0000 1.0000 -0.0000
vn 0.2880 0.8174 0.4989
vn 0.2880 0.8174 -0.4989
vn -0.2880 0.8174 -0.4989
vn -0.2880 0.8174 0.4989
vn 0.5761 0.8174 -0.0000
vn -0.0000 -1.0000 -0.0000
vt 0.666667 1.000000
vt 0.833333 1.000000
vt 1.000000 1.000000
vt 0.166667 1.000000
vt 0.333333 1.000000
vt 0.500000 1.000000
vt -0.000000 1.000000
vt 0.457846 0.370000
vt 0.250000 0.490000
vt 0.042154 0.370000
vt 0.042154 0.130000
vt 0.250000 0.010000
vt 0.457846 0.130000
vt 1.000000 0.500000
vt 0.833333 0.500000
vt 0.666667 0.500000
vt 0.500000 0.500000
vt 0.333333 0.500000
vt 0.166667 0.500000
vt -0.000000 0.500000
vt 0.750000 0.490000
vt 0.957846 0.370000
vt 0.957846 0.130000
vt 0.750000 0.010000
vt 0.542154 0.130000
vt 0.542154 0.370000
s 1
usemtl oak_tree_green
f 6/1/1 4/2/1 13/2/1 15/1/1
f 13/2/2 14/3/2 20/3/2 19/2/2
f 12/4/3 10/5/3 17/5/3 18/4/3
f 4/2/4 2/3/4 14/3/4 13/2/4
f 8/6/5 6/1/5 15/1/5 16/6/5
f 2/7/6 12/4/6 18/4/6 14/7/6
f 10/5/7 8/6/7 16/6/7 17/5/7
f 24/4/8 23/5/8 29/5/8 30/4/8
f 14/7/9 18/4/9 24/4/9 20/7/9
f 17/5/10 16/6/10 22/6/10 23/5/10
f 15/1/11 13/2/11 19/2/11 21/1/11
f 18/4/12 17/5/12 23/5/12 24/4/12
f 16/6/13 15/1/13 21/1/13 22/6/13
f 25/8/14 26/9/14 30/10/14 29/11/14 28/12/14 27/13/14
f 22/6/15 21/1/15 27/1/15 28/6/15
f 19/2/16 20/3/16 26/3/16 25/2/16
f 20/7/17 24/4/17 30/4/17 26/7/17
f 23/5/18 22/6/18 28/6/18 29/5/18
f 21/1/19 19/2/19 25/2/19 27/1/19
usemtl oak_tree_brown
f 1/14/2 2/3/2 4/2/2 3/15/2
f 3/15/11 4/2/11 6/1/11 5/16/11
f 5/16/13 6/1/13 8/6/13 7/17/13
f 7/17/10 8/6/10 10/5/10 9/18/10
f 9/18/12 10/5/12 12/4/12 11/19/12
f 11/19/9 12/4/9 2/7/9 1/20/9
f 1/21/20 3/22/20 5/23/20 7/24/20 9/25/20 11/26/20
